<?xml version="1.0" encoding="UTF-8"?>
<svg id="Layer_1" data-name="Layer 1" xmlns="http://www.w3.org/2000/svg" viewBox="0 0 252.9 209.3">
  <path d="m205.06,148.9h-115.55c-4.32,0-8.14-2.82-9.41-6.96L42.71,19.67H9.83C4.4,19.67,0,15.27,0,9.83S4.4,0,9.83,0h40.15c4.32,0,8.14,2.82,9.41,6.96l37.4,122.27h101.73l29.74-70.79h-16.92c-5.43,0-9.83-4.4-9.83-9.83s4.4-9.83,9.83-9.83h31.72c3.29,0,6.37,1.65,8.19,4.39s2.15,6.22.88,9.25l-38.01,90.46c-1.53,3.65-5.11,6.02-9.07,6.02Z"/>
  <circle cx="81.15" cy="191.99" r="17.31"/>
  <circle cx="209.6" cy="191.99" r="17.31"/>
</svg>