<?xml version="1.0" standalone="no"?>
<!DOCTYPE svg PUBLIC "-//W3C//DTD SVG 20010904//EN"
 "http://www.w3.org/TR/2001/REC-SVG-20010904/DTD/svg10.dtd">
<svg version="1.0" xmlns="http://www.w3.org/2000/svg"
 width="74.000000pt" height="16.000000pt" viewBox="0 0 74.000000 16.000000"
 preserveAspectRatio="xMidYMid meet">

<g transform="translate(0.000000,16.000000) scale(0.100000,-0.100000)"
fill="#000000" stroke="none">
<path d="M10 80 l0 -80 30 0 c17 0 30 5 30 10 0 6 -7 10 -15 10 -18 0 -21 46
-2 54 10 5 10 7 0 12 -19 8 -16 54 2 54 8 0 15 5 15 10 0 6 -13 10 -30 10
l-30 0 0 -80z"/>
<path d="M112 148 c-19 -19 -14 -38 18 -75 17 -19 27 -39 24 -45 -5 -7 -12 -5
-21 7 -9 13 -16 16 -24 8 -13 -13 15 -43 41 -43 16 0 40 26 40 44 0 3 -14 21
-31 41 -24 27 -29 39 -20 48 8 8 11 8 11 -1 0 -7 9 -12 20 -12 18 0 19 3 10
20 -12 22 -49 27 -68 8z"/>
<path d="M232 148 c-19 -19 -14 -53 13 -78 25 -24 33 -50 15 -50 -5 0 -10 7
-10 16 0 9 -6 14 -12 12 -19 -7 -16 -29 5 -42 12 -8 22 -8 35 0 26 17 26 48
-2 82 -27 31 -33 52 -16 52 6 0 10 -4 10 -10 0 -5 7 -10 15 -10 8 0 15 4 15 8
0 14 -23 32 -40 32 -9 0 -21 -5 -28 -12z"/>
<path d="M330 80 l0 -80 35 0 c19 0 35 5 35 10 0 6 -9 10 -20 10 -15 0 -20 7
-20 25 0 16 6 25 15 25 8 0 15 5 15 10 0 6 -7 10 -15 10 -9 0 -15 9 -15 25 0
18 5 25 20 25 11 0 20 5 20 10 0 6 -16 10 -35 10 l-35 0 0 -80z"/>
<path d="M430 80 c0 -64 3 -80 15 -80 11 0 15 11 16 38 l0 37 16 -38 c8 -20
19 -37 24 -37 5 0 9 36 9 80 0 81 -16 112 -22 43 l-3 -38 -17 38 c-27 59 -38
46 -38 -43z"/>
<path d="M562 148 c-7 -7 -12 -37 -12 -68 0 -58 11 -80 41 -80 21 0 49 26 49
46 0 21 -27 17 -33 -6 -11 -43 -27 -19 -27 40 0 59 16 83 27 40 6 -23 33 -27
33 -6 0 36 -53 59 -78 34z"/>
<path d="M670 80 l0 -80 35 0 c19 0 35 5 35 10 0 6 -9 10 -20 10 -15 0 -20 7
-20 25 0 16 6 25 15 25 8 0 15 5 15 10 0 6 -7 10 -15 10 -9 0 -15 9 -15 25 0
18 5 25 20 25 11 0 20 5 20 10 0 6 -16 10 -35 10 l-35 0 0 -80z"/>
</g>
</svg>
